<?xml version="1.0" encoding="iso-8859-1"?>
<!-- Generator: Adobe Illustrator 19.0.0, SVG Export Plug-In . SVG Version: 6.00 Build 0)  -->
<svg version="1.1" id="Capa_1" xmlns="http://www.w3.org/2000/svg" xmlns:xlink="http://www.w3.org/1999/xlink" x="0px" y="0px"
	 viewBox="0 0 469.847 469.847" style="enable-background:new 0 0 469.847 469.847;" xml:space="preserve">
<path style="fill:#2196F3;" d="M270.336,234.965L34.39,462.165c-11.049-7.551-17.609-20.111-17.493-33.493V41.258
	C16.781,27.876,23.341,15.316,34.39,7.765L270.336,234.965z"/>
<path style="fill:#4CAF50;" d="M352.896,155.605l-82.56,79.36L34.39,7.765c0.889-0.689,1.815-1.33,2.773-1.92
	c12.47-7.558,28.046-7.802,40.747-0.64L352.896,155.605z"/>
<path style="fill:#FFC107;" d="M452.95,234.965c0.154,15.107-8.055,29.061-21.333,36.267l-78.72,43.093l-82.56-79.36l82.56-79.36
	l78.72,43.093C444.895,205.904,453.104,219.858,452.95,234.965z"/>
<path style="fill:#F44336;" d="M352.896,314.325L77.91,464.725c-12.729,7.051-28.246,6.807-40.747-0.64
	c-0.958-0.59-1.884-1.231-2.773-1.92l235.947-227.2L352.896,314.325z"/>
<g>
</g>
<g>
</g>
<g>
</g>
<g>
</g>
<g>
</g>
<g>
</g>
<g>
</g>
<g>
</g>
<g>
</g>
<g>
</g>
<g>
</g>
<g>
</g>
<g>
</g>
<g>
</g>
<g>
</g>
</svg>
