<svg xmlns="http://www.w3.org/2000/svg" viewBox="0 0 1412.03 424.1"><defs><style>.cls-1{fill:#3c6;}.cls-2{fill:#ddd;}.cls-3{fill:#fff;}</style></defs><title>Asset 2</title><g id="Layer_2" data-name="Layer 2"><g id="Layer_1-2" data-name="Layer 1"><path class="cls-1" d="M522.05,62.45a65.84,65.84,0,0,0-13.57,5.17l-.17.09-.18.08c-3,1.19-8.41,4.43-17.29,13.06l-.09.09C478.83,94.25,473,108.43,473,124.28v4c0,11.18,3.44,22.32,10.22,33.09l.06.11.06.11c2.65,5.06,8.1,10.87,16.22,17.3,11.16,8.51,25.08,12.82,41.37,12.82h19.87V171.38H544.79c-10.1,0-17.21-1-21.74-3.2l-.13-.05-.13,0c-4.46-1.33-9.45-4.67-15.24-10.19l-.14-.15c-8.79-9.53-13.25-20.19-13.25-31.65V126c0-9.25,3.3-18.6,9.74-27.79l0,0,.08-.1a42.24,42.24,0,0,1,21.83-15.15l.17-.05.15-.08c1.82-.93,6.1-1.89,24.08-1.89h5.91l27.81-.1V191.73h21.31V60.27H544.79C534.8,60.27,527.16,61,522.05,62.45Z"/><path class="cls-1" d="M755.38,107.61a59.37,59.37,0,0,0-4.78-12l-.07-.12,0-.12A54.46,54.46,0,0,0,745,86.61l-.05-.07C730.5,69,713.2,60.47,692,60.47S653.51,69,639.14,86.62a47,47,0,0,0-5.6,8.77l-.06.14-.07.13a59.32,59.32,0,0,0-4.79,12A77.19,77.19,0,0,0,626,126c-.09,2.13-.14,4.35-.14,6.69v59h21.4v-62c0-1.27,0-2.51.11-3.73,1.09-21.22,11.73-35.73,31.65-43.17l.12,0,.12,0a50.4,50.4,0,0,1,12.62-2.12h.15a51.55,51.55,0,0,1,12.74,2.12l.12,0,.12,0c19.93,7.44,30.56,22,31.66,43.17.07,1.22.1,2.46.1,3.73v62h21.31v-59c0-2.34-.05-4.56-.13-6.69A77.56,77.56,0,0,0,755.38,107.61Z"/><path class="cls-1" d="M896.2,84.54c-5.51-6.23-10.75-10.9-15.63-13.93-9-5.15-17.11-8.18-24.12-9l-.31,0-.27-.08c-1.4-.41-7.3-1.1-31-1.1H778.74V80.82h61.43c13.11,0,23.44,3,30.73,8.85l.07.06.08,0a39.16,39.16,0,0,1,10.79,11l.07.13c5.11,8.15,7.74,16.58,7.83,25.07,0,.16,0,.32,0,.48,0,8.62-3.06,17.56-9.07,26.54-5,7.22-13,12.71-23.59,16.3-4.1,1.32-9.64,2-16.92,2H778.74v20.45h58.47c15.41,0,26.88-1.88,34.1-5.57l.17-.09c16-7,27.21-18.21,34.21-34.1A64.09,64.09,0,0,0,911,126.19V126A65,65,0,0,0,896.2,84.54Z"/><path class="cls-1" d="M1058.93,83.24a31.67,31.67,0,0,0-7.49-9.68l-.14-.13c-8.31-8.79-19.56-13.06-34.39-13.06H931.59V80.63h84.65a19.6,19.6,0,0,1,4.41.34l.18,0h.19a23.12,23.12,0,0,1,13.6,5.25l.13.1.11.12c5.14,5,7.74,10.7,7.74,17v.3c-.14,1.44-.41,3.21-.81,5.27l0,.23-.08.23c-3.53,9.83-10.34,15.48-19.78,16.51a28.49,28.49,0,0,1-3.24.19h-87v20.26h51.12c11.82,0,21.61,2.68,29.08,8,12.21,8.88,18.76,20.87,19.47,35.61l.09,1.71h21.45l-.1-1.89c-.9-17.09-6.42-31.16-16.41-41.81l-3.36-3.59,4.67-1.56c4.08-1.36,8.78-4.55,14-9.48l.09-.1a58.11,58.11,0,0,0,5.67-7.3c4.3-6.59,6.48-13.28,6.48-20v-3.92a42,42,0,0,0-4.8-18.71Z"/><path class="cls-1" d="M1202.79,85.22c-14.45-16.66-31.34-24.75-51.66-24.75h-1a52.83,52.83,0,0,0-10.79.88l-.17,0H1139c-8.91,1-19,5.41-30,13.25l-.07,0-.06,0c-16.44,14.25-24.43,30.86-24.43,50.77v1a69.44,69.44,0,0,0,3.55,21.43c2,5.74,5.49,12.19,10.43,19.15l0,.07.06.07c14.44,16.51,31.27,24.53,51.44,24.53h1a66.6,66.6,0,0,0,40.32-13.62l.09-.07c17-14.26,25.32-31.06,25.32-51.37v-1c0-14.47-4.64-28-13.79-40.39Zm-7.34,41.07v.21c-.4,6-1.08,10.22-2.09,13a46.06,46.06,0,0,1-17.11,23.61l-.18.12c-8.13,5.35-16.29,8.06-24.27,8.06h-2.68c-9.9,0-19.43-3.85-28.32-11.45l-.07-.07-.07-.06c-9.93-9.6-15-20.93-15-33.7v-.09a44.91,44.91,0,0,1,2.81-15.06l0-.1c1.16-4,3.72-8.49,7.83-13.88l.1-.13.1-.11c9.81-10.55,21.26-15.91,34-15.91,10.94,0,21.09,4.1,30.18,12.16l0,0,.09.09c9.62,9.48,14.52,20.58,14.6,33Z"/><polygon class="cls-1" points="1237.3 126 1237.3 191.73 1258.6 191.73 1258.6 126 1258.6 60.47 1237.3 60.47 1237.3 126"/><path class="cls-1" d="M1397.27,84.54c-5.52-6.23-10.76-10.9-15.64-13.93-9-5.15-17.1-8.18-24.11-9l-.32,0-.26-.08c-1.42-.41-7.32-1.1-31-1.1h-46.14V80.82h61.43c13.1,0,23.44,3,30.73,8.85l.07.06.07,0a38.94,38.94,0,0,1,10.79,11l.08.12c5.1,8.15,7.73,16.58,7.83,25.07,0,.16,0,.32,0,.48,0,8.62-3.06,17.56-9.07,26.54-5,7.23-13,12.71-23.59,16.3-4.11,1.32-9.64,2-16.92,2h-61.43v20.45h58.47c15.4,0,26.88-1.88,34.09-5.57l.17-.09c16-7,27.22-18.21,34.21-34.1a64.1,64.1,0,0,0,5.28-25.78c0-.06,0-.12,0-.19A64.94,64.94,0,0,0,1397.27,84.54Z"/><path class="cls-1" d="M1206.35,300.46q-6.93-5.5-19.56-5.5-10.18,0-14.46,4.28v23a17.24,17.24,0,0,1,7.33-1.43q9.18,0,9.17,5.91,0,9.58-11.61,9.78-8.16.21-11.61-6.92-3.16-6.14-3.06-18.23v-.72q.4-20,15.28-23.23a58.32,58.32,0,0,1,9.78-.61,38.39,38.39,0,0,1,12.63,2,40.33,40.33,0,0,1,11.82,7.33V269.7q-5.1-5.51-14.47-7.74-7.74-2-20.78-1.43-25.47,1-35.45,23a67.65,67.65,0,0,0-6.11,27.71v.11q-.39,22.74,8.15,36.77,9.16,15.08,33.41,15.07,13.45,0,20.17-2.65,19.56-7.74,19.76-33.21a43.27,43.27,0,0,0-2.46-16A24.41,24.41,0,0,0,1206.35,300.46Z"/><path class="cls-1" d="M526.93,225.69q-41.37-.19-49.92,32.19h28.53a20,20,0,0,1,10.39-7.53q4.27-1.42,12.83-1.43,28.92,0,28.93,46.86c0,2.72-.07,5.63-.2,8.76a58.61,58.61,0,0,1-.77,6.83q-2,11.08-8.4,17.41-7.14,7.55-18.74,7.74-26.28.62-26.69-12.63-.21-10.59,16.3-10.59h16.7c.06-.64.09-1.29.14-1.93.16-2.1.27-4.24.27-6.43q0-16.08-3.87-25.05-7.54-17.73-31.38-17.73-15.48,0-21.59,5.91v25.67q8.15-7.53,18.33-7.54,12.22,0,12,8.76H499.22a23.65,23.65,0,0,0-17.93,7.54,28.13,28.13,0,0,0-5.7,8.87,35,35,0,0,0-2.45,13.34q0,39.53,56.44,38.91,31-.42,44.2-18.13,8.78-12,10.92-34.12.69-7.15.7-15.39,0-37.28-14-53.68T526.93,225.69Z"/><path class="cls-1" d="M603.73,290.68h24.86q-7.14,3.46-13.86,12.23a49,49,0,0,0-5.29,8.46,41.49,41.49,0,0,0-4.28,17.21q-.61,19.76,9.17,28.11,8.14,7.14,23.83,6.32,8.36-.4,12.94-2.35t9.06-7.43V324.3q-8.55,11.42-16.09,11.41a14.26,14.26,0,0,1-3.46-.41q-6.52-1.64-6.52-10.8a23,23,0,0,1,3-12c.23-.38.48-.73.72-1.11a67.58,67.58,0,0,1,22.92-22.52V265.42h-57Z"/><path class="cls-1" d="M778.73,243.42q-13.44-16.5-44.21-16.5-20,0-32.9,8a37,37,0,0,0-16.81,22.31h27.3q6.12-8.35,24-8.35,17.52,0,24.25,17.93,4.89,13,4.48,37.48c0,2.5-.11,4.84-.22,7q-1.23,24.54-8.95,24.54-6.93,0-6.92-12v-7.33H725v7.74q0,11.82-8,11.82-7.34,0-7.33-11.41,0-6.93,4.89-10.8a18,18,0,0,1,4.51-2.54,36.33,36.33,0,0,1,13.42-2.15h15.68q1.23-17.72-3.26-30.56-6.31-18.12-31.57-18.13-18.75,0-26.9,6.11v24a42.53,42.53,0,0,1,18.34-6.52,46.8,46.8,0,0,1,5.7-.4q11.21,0,11.82,7.13H675.44v18.33h15.28a8.12,8.12,0,0,0-3.13,2.15,23.73,23.73,0,0,0-3.18,4.32,27.86,27.86,0,0,0-3.87,13.55q-.62,33.57,33.2,33.77,17.93.19,22.82-10.8,3.87,6.53,9.17,8.76t15.69,2q29.43-.36,31.37-51.64.29-7.28,0-15.59Q791.58,259.32,778.73,243.42Z"/><path class="cls-1" d="M908.91,263.18q-12.63-4.49-31.17-1.43-11.41,1.85-22.82,9.58-1.21-3.68-6.92-7.13a22.16,22.16,0,0,0-11.61-3.46q-12,0-20.17,5.7v24.85a23.49,23.49,0,0,1,14.26-4.48,8.21,8.21,0,0,1,4.28.82q-10,10-12,12.22c-5.34,5.84-8.67,9.66-10,11.52-.13.18-.26.36-.35.5v19.76h5.7q-3.06,4.51-2.45,13.13.61,7.38,4.49,11.68a20.52,20.52,0,0,0,16.09,6.77Q843.71,363,847,362a12.41,12.41,0,0,0,7.74-6.9q3.46,8.16,15.48,8.15c1.36,0,2.92-.07,4.69-.2a19.44,19.44,0,0,0,11.82-5.71,24.36,24.36,0,0,0,6.72-10.18V362.6a35,35,0,0,0,6.52.61q15.07,0,25.06-12.63,10.59-13.65,10.59-36.47c0-.93,0-1.83-.06-2.74Q934.67,272.46,908.91,263.18ZM864.7,336.52c-2,0-3.05-2.95-3.05-8.87v-7.83H847v7.74q0,9-4.08,9c-3,0-4.48-2-4.48-6.11a17.29,17.29,0,0,1,3.47-10.59H837c3-3.29,5.74-6.09,8.1-8.45q6.85-6.84,9.82-8.46a4.11,4.11,0,0,1,1.84-.41q4.28,0,8.45,5.94a25.33,25.33,0,0,1,4.59,13.32Q870.61,336.52,864.7,336.52Zm39.83-5.19q-4,6.42-8.86,5.8a124.45,124.45,0,0,0,.41-14.87,52.29,52.29,0,0,0-1.48-10.89,44.89,44.89,0,0,0-5-12.33q-5.71-9.37-13.45-11.62,10.18-3.26,18.74-.81,12.43,3.33,13.53,24.76c.08,1.41.12,2.85.12,4.37Q908.5,324.91,904.53,331.33Z"/><path class="cls-1" d="M981.44,264.81a22.32,22.32,0,0,0-10.39-3.87q-11-1-17.93,2.24v25.67a9.38,9.38,0,0,1,8.35-2.24q7.69,1.22,7.74,24.76v.3q0,22.41-7.74,24.45-4.08,1-8.35-1.84v26.08a26.26,26.26,0,0,0,17.32,2.24,28.5,28.5,0,0,0,17.11-10.8q8.76-11,9.17-39.73v-.7Q997.17,274.71,981.44,264.81Z"/><path class="cls-1" d="M1111.82,288.44q-6.72-22.81-27.09-27.5a31.6,31.6,0,0,0-5.5-.82,46.13,46.13,0,0,0,12.53-13.85,59.2,59.2,0,0,0,6.82-17.52h-28.93q-4.89,11.61-8.15,15.69-5.49,6.93-17.11,14.87a81.64,81.64,0,0,0-14.26,12.43q-13.07,14.26-13,39.63c0,.24,0,.47,0,.7q.4,51.75,49.1,51.75,23.83,0,36.47-13.85,11.8-13,12.22-36.67c0-.65,0-1.29,0-1.93A81.73,81.73,0,0,0,1111.82,288.44Zm-31.07,42q-5.6,7.14-15.17,7.13-9.78,0-15.49-7t-5.7-18.23c0-.31,0-.6,0-.91.15-7.06,2-13,5.57-17.73q5.61-7.44,15.79-7.44,19.89,0,20.53,25.17c0,.58,0,1.13,0,1.72A27.13,27.13,0,0,1,1080.75,330.41Z"/><path class="cls-1" d="M1342.64,302.09q-7.94-9.16-20.57-9.17h-8.56q-.81-8.75,10.39-8.76a34.7,34.7,0,0,1,20.58,6.52V265.62q-9-4.87-21.19-4.88-18.13,0-27.1,8.14-10.59,9.58-10.59,32.8,0,3.26.16,9.69c0,.56,0,1.13,0,1.72h27.51q10,0,10,13,0,10.61-10.19,10.6-7.53,0-7.53-9.58V319.2h-23.23v7.95q0,9.59-6.93,9.58t-9.37-7.54q-1.21-3.87-1.83-13.86c-.07-1.37-.11-2.68-.12-4q-.21-19.86,8.88-24.15,5.29-2.45,12.43-1V261.75a53.79,53.79,0,0,0-10-1,36.87,36.87,0,0,0-20.78,6.51q-16.92,11.42-17.48,44.12c0,.78,0,1.54,0,2.33a134.38,134.38,0,0,0,1,16.71q1.83,14.05,10.19,23.33t18.74,9.47q20,.41,26.69-8.15a26.22,26.22,0,0,0,7.23,5.6q4.59,2.55,20.27,2.55,10.39,0,20-10.29a34.78,34.78,0,0,0,9.57-24.55,47.73,47.73,0,0,0-2.82-17A32.3,32.3,0,0,0,1342.64,302.09Z"/><path class="cls-1" d="M1409.26,284.59V229.36h-26.48v31.37c-5.77-.17-10.6.63-14.47,2.45v25.67a9.4,9.4,0,0,1,8.36-2.24q7.68,1.22,7.74,24.76v.3q0,22.41-7.74,24.45-4.08,1-8.36-1.84v26.08a26.26,26.26,0,0,0,17.32,2.24,28.48,28.48,0,0,0,17.11-10.8q8.76-11,9.17-39.73c0-.23,0-.46,0-.7Q1412.11,295.47,1409.26,284.59Z"/><path class="cls-2" d="M223,209.88l-4.56,10.06a62.52,62.52,0,0,0-8.83-.56q2.91-6.44,5.81-12.86C217.66,201.67,225.23,205,223,209.88Z"/><path class="cls-1" d="M424.09,212.05C424.09,329,329,424.1,212,424.1S0,329,0,212.05,95.12,0,212,0,424.09,95.13,424.09,212.05Z"/><path class="cls-3" d="M306.7,195.89V330.45a8.3,8.3,0,0,1-2.68,6.12c-1.28,1.17-2.6,2.28-4,3.37-.71.55-1.43,1.09-2.17,1.6-15.77,11.24-37.46,17.1-54.76,20.13a159.91,159.91,0,0,1-18.74,2.12l-.39,0c-3.15.17-6.33.26-9.49.26a177.53,177.53,0,0,1-24.58-1.83c-30.92-4.55-47.83-12.42-56.95-19a37.39,37.39,0,0,1-8.51-8.15,9.93,9.93,0,0,1-1.88-5.86V264.37c-19.74-5.07-18.68-25.84-18.68-25.84,0-31.2,34.93-45.85,34.93-45.85,41.05-17.06,79.43-13.59,79.43-13.59C287.23,170.81,306.7,195.89,306.7,195.89Z"/><path class="cls-2" d="M306.71,195.88v68l-26.93-25L189.15,274l-28-16.8c-17.31,13.34-38.64,7.2-38.64,7.2-19.74-5.07-18.68-25.84-18.68-25.84,0-31.19,34.93-45.84,34.93-45.84,34-14.1,66.06-14.18,76.14-13.8,2.14.09,3.29.19,3.29.19,36-4.3,58.53.45,71.83,6h0C302.25,190.15,306.71,195.88,306.71,195.88Z"/><path class="cls-3" d="M306.71,170s-27.45-18.12-88.49,9.06c0,0-1.15-.1-3.29-.19-10.08-.38-42.19-.3-76.14,13.8a22.78,22.78,0,0,0-19.72-2.41s-5.55-52.07,33.9-86.74a96.32,96.32,0,0,1,11.54-8.7,90.33,90.33,0,0,1,9.61-5.44,94,94,0,0,1,41.54-9.79,82,82,0,0,1,11.36.73,84.45,84.45,0,0,1,9.77,1.75c25,6,53.9,23.83,66.57,72.24Q305.31,161.68,306.71,170Z"/><path class="cls-3" d="M306.71,263.84l-27.46-29.58S237,256,190.89,251.19a16.23,16.23,0,0,1-11.18-6.34l-38.52-50.31s12-2.4,21.06,0c0,0,29.31,7.12,40,31.15l38.11-16-32.78,7.73s-16.8-19.72-41.58-25.58c0,0,36.78-20.79,62.37,0,0,0,20.78-11.46,40.24-1.07,0,0,15.19-11.71,38.12,5.07Z"/><path class="cls-3" d="M306.71,170a29.6,29.6,0,0,1-16.64,15h0c-13.3-5.54-35.82-10.29-71.83-6C279.26,151.9,306.71,170,306.71,170Z"/><path class="cls-2" d="M174.12,89.4a90.33,90.33,0,0,0-9.61,5.44c-3.82-3.88-7.66-7.79-11.5-11.67-4.82-4.9,2.71-12.43,7.55-7.54Q167.34,82.5,174.12,89.4Z"/><path class="cls-2" d="M232.89,67.39c-2,4.33-3.9,8.64-5.87,13a82,82,0,0,0-11.36-.73q3.74-8.28,7.48-16.54C226,56.82,235.72,61.15,232.89,67.39Z"/><ellipse class="cls-1" cx="177.53" cy="153.67" rx="10.45" ry="10.4" transform="translate(-56.67 170.54) rotate(-45)"/><ellipse class="cls-1" cx="243.09" cy="137.5" rx="10.45" ry="10.4" transform="translate(-26.03 212.17) rotate(-45)"/></g></g></svg>